<svg width="364" height="241" viewBox="0 0 364 241" fill="none" xmlns="http://www.w3.org/2000/svg">
<path d="M250.018 121.008L343.312 39.9315V201.16L250.018 121.008ZM129.802 134.738L162.563 163.185C167.705 167.555 174.409 170.194 181.735 170.194H181.992H181.977H182.19C189.531 170.194 196.235 167.539 201.437 163.14L201.391 163.17L234.153 134.723L333.741 220.276H30.2588L129.802 134.738ZM30.1223 20.7092H333.923L187.999 147.483C186.358 148.781 184.327 149.486 182.235 149.485H182.023H182.038H181.826C179.726 149.488 177.688 148.776 176.047 147.467L176.062 147.483L30.1223 20.7092ZM20.7034 39.9163L113.982 120.993L20.7034 201.099V39.9163ZM348.317 2.88259C344.677 1.06201 340.4 0 335.865 0H28.196C23.7999 0.0010504 19.4643 1.02424 15.5313 2.98879L15.6982 2.91294C10.9898 5.23587 7.0247 8.82952 4.2507 13.2879C1.4767 17.7463 0.0043583 22.8919 0 28.1432L0 212.811C0.00802962 220.285 2.97965 227.45 8.26285 232.735C13.546 238.02 20.7093 240.992 28.1808 241H335.819C343.291 240.992 350.454 238.02 355.737 232.735C361.02 227.45 363.992 220.285 364 212.811V28.1432C364 17.1135 357.645 7.55543 348.393 2.95845L348.226 2.88259H348.317Z" fill="#FF7C52"/>
</svg>
